<svg xmlns="http://www.w3.org/2000/svg" viewBox="0 0 550 258" width="550" height="258" class="dg" role="img" aria-label="VLM evaluation: an image set goes through a DeepSeek vision-language model, its predicted objects and scene descriptions meet human-annotated ground truth in a comparison harness, and disagreements go to error analysis."><defs><marker id="dg-vlm-head" viewBox="0 0 10 10" refX="9" refY="5" markerWidth="7" markerHeight="7" orient="auto-start-reverse"><path class="dg-head" d="M0 0 L10 5 L0 10 Z"/></marker></defs><g class="dg-edges"><path class="dg-edge" d="M162 37 L192 37" pathLength="1" marker-end="url(#dg-vlm-head)"/><path class="dg-edge" d="M348 37 L378 37" pathLength="1" marker-end="url(#dg-vlm-head)"/><path class="dg-edge" d="M456 66 L456 129 L348 129" pathLength="1" marker-end="url(#dg-vlm-head)"/><path class="dg-edge" d="M162 129 L192 129" pathLength="1" marker-end="url(#dg-vlm-head)"/><path class="dg-edge" d="M270 158 L270 192" pathLength="1" marker-end="url(#dg-vlm-head)"/></g><g class="dg-nodes"><g class="dg-n dg-data"><path class="dg-shape" d="M6 13 a78 5 0 0 1 156 0 V61 a78 5 0 0 1 -156 0 Z"/><path class="dg-rim" d="M6 13 a78 5 0 0 0 156 0"/><text x="84" y="43.5" class="dg-t">Image set</text></g><g class="dg-n dg-proc"><rect class="dg-shape" x="192" y="8" width="156" height="58" rx="10"/><text x="270" y="26.5" class="dg-t">DeepSeek</text><text x="270" y="41.5" class="dg-s">vision-language</text><text x="270" y="56.5" class="dg-s">model</text></g><g class="dg-n dg-data"><path class="dg-shape" d="M378 13 a78 5 0 0 1 156 0 V61 a78 5 0 0 1 -156 0 Z"/><path class="dg-rim" d="M378 13 a78 5 0 0 0 156 0"/><text x="456" y="28.5" class="dg-t">Predicted objects</text><text x="456" y="43.5" class="dg-s">and scene</text><text x="456" y="58.5" class="dg-s">descriptions</text></g><g class="dg-n dg-data"><path class="dg-shape" d="M6 105 a78 5 0 0 1 156 0 V153 a78 5 0 0 1 -156 0 Z"/><path class="dg-rim" d="M6 105 a78 5 0 0 0 156 0"/><text x="84" y="128" class="dg-t">Human-annotated</text><text x="84" y="143" class="dg-s">ground truth</text></g><g class="dg-n dg-proc dg-accent"><rect class="dg-shape" x="192" y="100" width="156" height="58" rx="10"/><text x="270" y="126" class="dg-t">Comparison</text><text x="270" y="141" class="dg-s">harness</text></g><g class="dg-n dg-proc"><rect class="dg-shape" x="192" y="192" width="156" height="58" rx="10"/><text x="270" y="225.5" class="dg-t">Error analysis</text></g></g><g class="dg-labels"></g></svg>
